<?xml version="1.0" standalone="no"?>
<!DOCTYPE svg PUBLIC "-//W3C//DTD SVG 20010904//EN"
 "http://www.w3.org/TR/2001/REC-SVG-20010904/DTD/svg10.dtd">
<svg version="1.0" xmlns="http://www.w3.org/2000/svg"
 width="366.000000pt" height="311.000000pt" viewBox="0 0 366.000000 311.000000"
 preserveAspectRatio="xMidYMid meet">

<g transform="translate(0.000000,311.000000) scale(0.100000,-0.100000)"
fill="#000000" stroke="none">
<path d="M297 3090 c-111 -35 -190 -106 -245 -219 -45 -94 -54 -194 -25 -286
14 -42 147 -265 435 -730 228 -369 556 -897 728 -1175 208 -336 329 -522 362
-556 163 -168 430 -162 586 12 26 28 141 204 256 390 195 316 494 798 1004
1621 117 188 224 367 238 398 24 51 25 64 22 173 -3 98 -7 125 -27 165 -30 62
-100 139 -154 170 -103 60 -11 57 -1636 56 -1420 0 -1489 -1 -1544 -19z m3034
-171 c112 -34 185 -174 147 -284 -12 -33 -319 -533 -1118 -1820 -48 -77 -140
-225 -205 -330 -149 -242 -157 -252 -219 -281 -87 -41 -179 -27 -246 35 -24
23 -226 340 -546 856 -279 451 -600 969 -712 1150 -113 182 -213 348 -223 370
-45 98 1 233 96 282 16 9 41 19 55 24 43 13 2927 11 2971 -2z"/>
<path d="M1605 2645 c-201 -36 -384 -171 -538 -396 l-57 -83 26 -27 26 -27 66
51 c199 150 480 206 530 104 6 -12 14 -53 17 -91 l7 -69 121 7 c66 3 140 6
164 6 l43 0 0 56 c0 70 21 108 75 134 45 22 136 27 180 10 15 -6 32 -24 40
-45 20 -45 40 -55 118 -55 61 0 67 2 92 32 l26 31 -3 153 c-3 149 -4 154 -28
179 -53 53 -181 40 -196 -19 -7 -28 -58 -56 -101 -56 -30 0 -107 43 -132 74
-33 40 -63 46 -238 45 -92 0 -200 -7 -238 -14z"/>
<path d="M1670 1581 l0 -479 29 -7 c16 -3 35 -12 41 -20 9 -11 17 -10 46 7 38
22 96 20 121 -5 12 -11 21 -10 58 7 l44 21 1 478 0 477 -170 0 -170 0 0 -479z
m110 404 c7 -9 10 -25 6 -41 -9 -33 -49 -31 -54 4 -7 48 21 69 48 37z m-2
-137 c14 -14 17 -654 3 -676 -5 -8 -17 -12 -27 -10 -18 3 -19 19 -22 338 -1
184 0 341 3 347 6 16 27 17 43 1z"/>
<path d="M1672 998 c3 -24 25 -88 49 -143 l43 -101 79 1 79 2 44 99 c48 109
60 188 27 182 -10 -2 -26 -19 -35 -38 -20 -39 -51 -47 -56 -15 -6 31 -33 55
-62 55 -31 0 -44 -13 -54 -53 -5 -22 -12 -28 -29 -25 -12 2 -23 11 -25 23 -5
26 -31 55 -50 55 -11 0 -14 -9 -10 -42z"/>
<path d="M1797 693 c-2 -5 7 -32 21 -62 l25 -55 24 53 c12 30 23 57 23 62 0
11 -87 12 -93 2z"/>
</g>
</svg>
