<?xml version="1.0" standalone="no"?>
<!DOCTYPE svg PUBLIC "-//W3C//DTD SVG 20010904//EN"
 "http://www.w3.org/TR/2001/REC-SVG-20010904/DTD/svg10.dtd">
<svg version="1.0" xmlns="http://www.w3.org/2000/svg"
 width="252.000000pt" height="252.000000pt" viewBox="0 0 252.000000 252.000000"
 preserveAspectRatio="xMidYMid meet">

<g transform="translate(0.000000,252.000000) scale(0.100000,-0.100000)"
fill="#000000" stroke="none">
<path d="M2294 2477 c-143 -68 -253 -320 -241 -552 4 -100 29 -169 75 -218 31
-33 79 -60 91 -52 5 2 26 -2 46 -11 20 -8 40 -12 44 -9 3 3 20 65 36 137 17
72 35 133 40 134 6 2 21 -5 34 -15 l24 -18 -22 -148 c-18 -129 -26 -157 -57
-214 -20 -36 -39 -70 -44 -74 -4 -5 -22 -1 -40 8 -32 16 -33 23 -15 67 11 28
-61 58 -140 58 -42 0 -64 4 -60 10 9 15 -60 12 -100 -4 -48 -20 -120 -90 -145
-140 -11 -25 -20 -62 -20 -90 0 -43 2 -47 16 -35 9 7 52 63 96 125 44 61 91
117 104 123 38 17 42 13 9 -8 -17 -10 -73 -75 -124 -144 -95 -129 -136 -163
-184 -154 -21 4 -21 4 -1 6 18 1 22 9 27 57 7 64 -6 102 -37 109 -28 6 -837
55 -913 55 -83 0 -89 -9 -98 -143 -6 -95 -5 -111 11 -128 14 -15 20 -17 32 -6
11 9 11 5 -2 -15 -19 -30 -75 -68 -97 -68 -8 1 2 8 21 16 l35 16 -25 10 c-14
6 -104 11 -200 12 -155 1 -183 -2 -246 -21 -75 -24 -124 -64 -158 -132 -26
-49 -18 -57 13 -14 26 37 86 83 107 83 4 0 -12 -13 -37 -28 -75 -48 -129 -154
-129 -258 l0 -40 223 -49 c122 -27 225 -53 228 -58 4 -5 47 -26 96 -46 49 -20
204 -83 344 -140 l254 -105 -3 -58 -4 -59 64 3 63 3 3 53 3 52 -58 1 -58 2 70
7 c69 7 209 44 232 62 7 5 37 3 79 -7 37 -8 70 -13 73 -9 3 3 6 72 6 152 0
125 -3 152 -19 182 -38 71 -81 113 -191 185 -61 41 -128 92 -147 113 -36 39
-76 127 -64 139 3 3 6 -1 6 -10 0 -9 8 -17 18 -17 9 0 27 -3 39 -6 18 -5 23
-2 23 12 0 12 6 7 18 -16 12 -26 86 -88 277 -232 143 -108 262 -197 266 -197
3 -1 43 72 89 161 46 90 94 182 107 205 l24 42 47 -14 c25 -8 47 -13 48 -12 0
1 58 107 128 235 l126 232 24 161 23 161 -41 26 c-23 14 -43 28 -45 29 -3 2
22 120 54 263 35 158 55 264 49 270 -5 5 -40 11 -79 15 -61 5 -76 3 -121 -18z
m125 9 c-2 -2 -17 -6 -34 -10 -22 -5 -26 -4 -15 4 14 9 59 15 49 6z m-133 -72
c-26 -25 -58 -66 -72 -90 -33 -56 -43 -58 -12 -2 22 40 110 138 123 138 4 0
-14 -21 -39 -46z m-120 -181 c-8 -15 -15 -25 -16 -21 0 12 23 58 27 54 3 -2
-2 -17 -11 -33z m-22 -67 c-3 -15 -8 -25 -11 -23 -2 3 -1 17 3 31 3 15 8 25
11 23 2 -3 1 -17 -3 -31z m-23 -96 c-5 -25 -9 -35 -10 -24 -1 28 11 92 16 79
1 -6 -1 -30 -6 -55z m-14 -162 c-2 -24 -4 -7 -4 37 0 44 2 63 4 43 2 -21 2
-57 0 -80z m10 -80 c-3 -8 -6 -5 -6 6 -1 11 2 17 5 13 3 -3 4 -12 1 -19z m23
-63 c0 -5 -5 -3 -10 5 -5 8 -10 20 -10 25 0 6 5 3 10 -5 5 -8 10 -19 10 -25z
m50 -69 c28 -31 30 -36 10 -23 -14 9 -34 31 -44 49 -10 18 -15 29 -10 23 5 -5
25 -27 44 -49z m81 -281 l29 -16 -21 -42 c-12 -23 -44 -82 -71 -130 -47 -83
-52 -88 -77 -82 -14 4 -28 9 -31 11 -5 6 127 274 135 274 3 0 19 -7 36 -15z
m-1444 -108 c-18 -18 -42 -46 -55 -62 -12 -17 -4 -2 18 33 22 34 47 62 54 62
8 0 1 -14 -17 -33z m86 26 c-7 -2 -19 -2 -25 0 -7 3 -2 5 12 5 14 0 19 -2 13
-5z m50 -10 c-7 -2 -19 -2 -25 0 -7 3 -2 5 12 5 14 0 19 -2 13 -5z m60 -10
c-7 -2 -21 -2 -30 0 -10 3 -4 5 12 5 17 0 24 -2 18 -5z m60 -10 c-7 -2 -21 -2
-30 0 -10 3 -4 5 12 5 17 0 24 -2 18 -5z m50 -10 c-7 -2 -19 -2 -25 0 -7 3 -2
5 12 5 14 0 19 -2 13 -5z m280 -2 c-54 -7 -103 -40 -103 -69 0 -9 -3 -12 -7
-9 -11 11 19 57 47 72 14 8 45 14 70 13 l45 -1 -52 -6z m-221 -18 c11 -10 17
-28 17 -47 l-2 -31 -6 35 c-4 23 -14 39 -31 47 -14 7 -19 13 -11 13 8 0 23 -7
33 -17z m305 11 c-3 -3 -12 -4 -19 -1 -8 3 -5 6 6 6 11 1 17 -2 13 -5z m63
-14 c20 -6 21 -8 5 -8 -11 0 -29 3 -40 8 -25 11 1 11 35 0z m93 -17 c-13 -2
-33 -2 -45 0 -13 2 -3 4 22 4 25 0 35 -2 23 -4z m-1121 -140 c-51 -2 -132 -2
-180 0 -48 1 -6 3 93 3 99 0 138 -2 87 -3z m-275 -9 c-3 -3 -12 -4 -19 -1 -8
3 -5 6 6 6 11 1 17 -2 13 -5z m250 -450 c-3 -3 -12 -4 -19 -1 -8 3 -5 6 6 6
11 1 17 -2 13 -5z m50 -10 c-3 -3 -12 -4 -19 -1 -8 3 -5 6 6 6 11 1 17 -2 13
-5z m73 -14 c20 -6 21 -8 5 -8 -11 0 -31 4 -45 8 -20 6 -21 8 -5 8 11 0 31 -4
45 -8z m90 -20 c20 -6 21 -8 5 -8 -11 0 -31 4 -45 8 -20 6 -21 8 -5 8 11 0 31
-4 45 -8z m63 -17 c-7 -2 -19 -2 -25 0 -7 3 -2 5 12 5 14 0 19 -2 13 -5z m44
-9 c-3 -3 -12 -4 -19 -1 -8 3 -5 6 6 6 11 1 17 -2 13 -5z m46 -11 c-7 -2 -19
-2 -25 0 -7 3 -2 5 12 5 14 0 19 -2 13 -5z m44 -9 c-3 -3 -12 -4 -19 -1 -8 3
-5 6 6 6 11 1 17 -2 13 -5z m46 -11 c-7 -2 -19 -2 -25 0 -7 3 -2 5 12 5 14 0
19 -2 13 -5z m77 -13 c20 -6 21 -8 5 -8 -11 0 -31 4 -45 8 -20 6 -21 8 -5 8
11 0 31 -4 45 -8z m57 -16 c-3 -3 -12 -4 -19 -1 -8 3 -5 6 6 6 11 1 17 -2 13
-5z m46 -11 c-7 -2 -19 -2 -25 0 -7 3 -2 5 12 5 14 0 19 -2 13 -5z m44 -9 c-3
-3 -12 -4 -19 -1 -8 3 -5 6 6 6 11 1 17 -2 13 -5z m46 -11 c-7 -2 -19 -2 -25
0 -7 3 -2 5 12 5 14 0 19 -2 13 -5z m77 -13 c20 -6 21 -8 5 -8 -11 0 -31 4
-45 8 -20 6 -21 8 -5 8 11 0 31 -4 45 -8z m90 -20 c20 -6 21 -8 5 -8 -11 0
-31 4 -45 8 -20 6 -21 8 -5 8 11 0 31 -4 45 -8z m63 -17 c-7 -2 -19 -2 -25 0
-7 3 -2 5 12 5 14 0 19 -2 13 -5z"/>
<path d="M1316 1021 c5 -4 45 -32 89 -61 116 -77 164 -118 197 -169 l30 -46
-5 39 c-15 100 -122 187 -291 237 -16 5 -25 5 -20 0z"/>
<path d="M718 142 c-412 -92 -428 -97 -428 -119 0 -21 4 -23 51 -23 52 0 482
36 532 45 23 4 27 1 27 -20 0 -24 3 -25 63 -25 47 0 93 10 182 40 l119 40 312
-40 c367 -47 384 -48 384 -20 0 12 -10 25 -22 30 -13 5 -166 50 -341 100 -268
76 -329 90 -385 89 -44 -1 -211 -34 -494 -97z"/>
</g>
</svg>
