<?xml version="1.0" standalone="no"?>
<!DOCTYPE svg PUBLIC "-//W3C//DTD SVG 20010904//EN"
 "http://www.w3.org/TR/2001/REC-SVG-20010904/DTD/svg10.dtd">
<svg version="1.0" xmlns="http://www.w3.org/2000/svg"
 width="384.000000pt" height="384.000000pt" viewBox="0 0 384.000000 384.000000"
 preserveAspectRatio="xMidYMid meet">

<g transform="translate(0.000000,384.000000) scale(0.100000,-0.100000)"
fill="#000000" stroke="none">
<path d="M1755 3814 c-214 -22 -475 -94 -659 -182 -580 -278 -980 -825 -1071
-1463 -19 -134 -19 -395 0 -529 48 -339 196 -677 410 -940 30 -36 100 -111
157 -166 268 -261 578 -425 953 -505 100 -22 135 -24 375 -24 291 0 362 9 574
76 408 127 777 406 1020 769 153 228 261 514 301 793 19 132 19 393 0 526
-117 823 -745 1473 -1565 1621 -111 20 -396 34 -495 24z m362 -1124 c177 -62
314 -207 379 -400 29 -85 26 -252 -5 -349 -62 -190 -217 -338 -416 -397 -81
-24 -229 -24 -310 0 -306 91 -491 385 -434 692 14 76 68 193 121 261 72 94
193 172 318 208 81 22 265 15 347 -15z m463 -1401 c231 -37 392 -239 390 -488
-1 -55 -2 -56 -55 -100 -481 -393 -1143 -468 -1692 -192 -105 52 -201 114
-295 190 l-58 46 0 56 c0 144 48 267 140 359 66 66 158 115 241 129 78 13
1249 13 1329 0z"/>
</g>
</svg>
